<svg width="16" height="18" viewBox="0 0 16 18" fill="none" xmlns="http://www.w3.org/2000/svg">
<g id="ri:search-line">
<path id="Vector" d="M12.5233 12.4628L15.7355 15.6742L14.6742 16.7355L11.4628 13.5233C10.2678 14.4812 8.7815 15.0022 7.25 15C3.524 15 0.5 11.976 0.5 8.25C0.5 4.524 3.524 1.5 7.25 1.5C10.976 1.5 14 4.524 14 8.25C14.0022 9.7815 13.4812 11.2678 12.5233 12.4628ZM11.0187 11.9062C11.9706 10.9274 12.5022 9.61532 12.5 8.25C12.5 5.34975 10.1503 3 7.25 3C4.34975 3 2 5.34975 2 8.25C2 11.1503 4.34975 13.5 7.25 13.5C8.61532 13.5022 9.92741 12.9706 10.9062 12.0187L11.0187 11.9062Z" fill="#6F6F6F"/>
</g>
</svg>
